<?xml version="1.0" standalone="no"?>
<!DOCTYPE svg PUBLIC "-//W3C//DTD SVG 20010904//EN"
 "http://www.w3.org/TR/2001/REC-SVG-20010904/DTD/svg10.dtd">
<svg version="1.0" xmlns="http://www.w3.org/2000/svg"
 width="100.000000pt" height="100.000000pt" viewBox="0 0 100.000000 100.000000"
 preserveAspectRatio="xMidYMid meet">
<metadata>
Created by potrace 1.11, written by Peter Selinger 2001-2013
</metadata>
<g transform="translate(0.000000,100.000000) scale(0.100000,-0.100000)"
fill="#000000" stroke="none">
<path d="M245 900 l0 -50 43 0 42 0 0 50 0 50 -42 0 -43 0 0 -50z m52 0 c0
-22 -4 -40 -8 -40 -5 0 -9 18 -9 40 0 22 4 40 9 40 4 0 8 -18 8 -40z"/>
<path d="M355 900 c0 -41 3 -50 18 -50 14 0 17 9 17 50 0 41 -3 50 -18 50 -14
0 -17 -9 -17 -50z"/>
<path d="M403 900 c2 -48 3 -50 30 -50 15 0 26 4 23 9 -4 5 -1 20 4 33 10 23
10 23 6 1 -2 -13 0 -23 6 -23 5 0 6 -4 3 -10 -4 -6 16 -10 54 -10 55 0 83 12
66 28 -4 4 -10 1 -12 -5 -3 -7 -9 -13 -15 -13 -7 0 -9 17 -6 45 5 39 3 45 -13
45 -16 0 -19 -8 -19 -45 0 -25 -4 -45 -9 -45 -5 0 -14 20 -20 45 -14 58 -35
58 -51 0 -10 -37 -14 -42 -26 -30 -16 16 -19 45 -4 45 5 0 7 7 4 15 -12 31
-22 14 -21 -35z"/>
<path d="M596 941 c-4 -7 -5 -15 -2 -18 9 -9 19 4 14 18 -4 11 -6 11 -12 0z"/>
<path d="M618 900 c-3 -45 -1 -50 17 -50 18 0 20 5 17 50 -3 33 -8 50 -17 50
-9 0 -14 -17 -17 -50z"/>
<path d="M660 936 c0 -8 5 -18 10 -21 6 -3 10 0 10 7 0 9 3 9 10 -2 5 -8 10
-27 10 -42 0 -21 5 -28 19 -28 14 0 20 9 23 33 3 17 8 40 13 50 4 10 3 17 -4
17 -6 0 -11 -7 -11 -15 0 -8 -4 -15 -10 -15 -5 0 -10 7 -10 15 0 10 -10 15
-30 15 -19 0 -30 -5 -30 -14z"/>
<path d="M811 818 c-1 -29 -15 -38 -25 -15 -3 6 -2 -1 1 -18 6 -27 5 -29 -11
-16 -23 19 -31 7 -12 -20 20 -30 4 -63 -26 -53 -16 5 -20 3 -15 -9 3 -9 1 -18
-6 -20 -8 -3 -7 -10 5 -23 23 -26 7 -57 -25 -45 -27 10 -45 5 -74 -21 -12 -11
-26 -17 -32 -14 -5 4 -12 2 -15 -3 -4 -5 -18 -7 -34 -5 -15 3 -34 5 -42 5 -9
0 -16 10 -17 22 0 12 1 16 4 10 3 -7 9 -13 14 -13 6 0 5 9 -1 23 -10 20 -10
20 3 5 8 -10 20 -18 27 -18 7 0 10 -7 6 -15 -6 -16 18 -17 42 -2 6 5 16 6 21
3 19 -12 23 54 5 99 -17 45 -44 61 -44 28 -1 -24 -33 -61 -61 -72 -15 -5 -35
-3 -56 5 -31 13 -51 6 -39 -15 3 -4 -3 -16 -14 -26 -17 -16 -20 -16 -26 -2
-13 36 -105 22 -120 -18 -3 -8 -14 -17 -25 -20 -10 -4 -19 -12 -19 -19 0 -8
-7 -20 -16 -27 -14 -11 -19 -10 -33 6 -18 22 -51 29 -51 11 0 -6 -12 -22 -25
-35 -14 -13 -25 -27 -25 -31 0 -4 -11 -11 -25 -14 -27 -7 -35 -36 -9 -36 15 0
15 -2 0 -25 -10 -15 -16 -46 -16 -80 0 -59 10 -68 46 -40 25 19 48 19 64 0 10
-12 8 -20 -10 -42 -19 -24 -20 -28 -5 -31 9 -2 22 1 29 7 17 15 26 4 26 -33 1
-29 1 -30 15 -12 9 12 15 15 15 7 0 -7 6 -11 14 -8 7 3 18 1 24 -5 15 -15 42
-2 42 19 0 16 10 18 69 18 l69 1 48 50 c27 29 56 53 64 56 15 5 50 -20 50 -37
0 -5 14 -23 31 -39 26 -25 33 -27 55 -17 13 6 27 18 30 26 8 19 51 19 70 0 24
-23 56 -17 88 15 26 27 31 29 46 15 23 -21 57 -19 91 6 28 19 29 24 29 95 0
92 -12 109 -70 101 l-39 -5 0 65 c0 36 -5 71 -10 76 -18 18 -12 29 11 21 21
-6 21 -5 9 10 -12 14 -12 19 -2 26 8 4 11 12 7 18 -3 6 0 13 6 15 7 3 0 6 -17
7 l-30 2 30 14 30 15 -27 -6 c-33 -6 -34 -1 -7 33 l20 26 -23 9 c-13 5 -27 9
-33 10 -13 3 -31 20 -38 37 -3 9 -6 4 -6 -12z m-247 -173 c3 -8 1 -15 -5 -15
-6 0 -7 -6 -3 -12 6 -10 5 -10 -8 -1 -8 7 -19 9 -23 5 -5 -4 -5 -1 -1 6 4 7
12 9 18 6 7 -5 9 -1 5 9 -3 10 -2 17 2 17 5 0 11 -7 15 -15z m-94 -37 c0 -11
-12 -10 -30 2 -12 7 -10 9 8 7 12 0 22 -5 22 -9z m130 -2 c0 -7 -11 -16 -25
-19 -25 -4 -25 -4 -9 14 20 22 34 24 34 5z m44 -75 c-2 -2 9 -12 26 -22 39
-24 48 -61 21 -88 -12 -12 -21 -18 -21 -15 0 4 -7 1 -15 -6 -23 -19 -69 14
-88 66 -9 26 -12 46 -6 49 5 4 7 11 3 16 -3 5 13 8 39 7 25 -2 43 -5 41 -7z
m134 -93 c3 -13 -3 -18 -22 -18 -20 0 -26 5 -26 21 0 15 5 20 22 17 13 -2 24
-11 26 -20z m192 -24 c0 -2 -7 -4 -15 -4 -8 0 -15 4 -15 10 0 5 7 7 15 4 8 -4
15 -8 15 -10z m-236 -74 c-13 -13 -44 -2 -44 15 0 20 23 25 40 9 10 -10 11
-17 4 -24z m-514 -160 c0 -5 -4 -10 -10 -10 -5 0 -10 5 -10 10 0 6 5 10 10 10
6 0 10 -4 10 -10z"/>
<path d="M720 716 c0 -2 9 -6 20 -9 11 -3 18 -1 14 4 -5 9 -34 13 -34 5z"/>
<path d="M321 128 c0 -22 1 -22 10 -3 7 15 8 8 6 -27 -2 -44 0 -48 21 -48 18
0 23 4 18 16 -3 9 -6 31 -6 50 0 30 -3 34 -25 34 -19 0 -25 -5 -24 -22z"/>
<path d="M380 143 c0 -5 5 -15 10 -23 8 -12 10 -11 10 8 0 12 -4 22 -10 22 -5
0 -10 -3 -10 -7z"/>
<path d="M410 99 l0 -49 50 0 c47 0 50 2 50 25 0 14 5 25 11 25 5 0 8 -4 5 -9
-10 -16 6 -41 26 -41 13 0 18 5 15 14 -3 8 -9 31 -13 50 -10 58 -30 45 -59
-39 -6 -19 -7 -19 -16 -2 -6 10 -8 31 -4 46 6 28 5 29 -29 29 l-36 0 0 -49z
m55 32 c3 -5 1 -12 -5 -16 -5 -3 -10 1 -10 9 0 18 6 21 15 7z m0 -50 c3 -5 1
-12 -5 -16 -5 -3 -10 1 -10 9 0 18 6 21 15 7z"/>
<path d="M585 102 l0 -49 45 -1 45 -1 0 50 c0 40 -3 49 -17 49 -10 0 -18 -7
-18 -15 0 -8 -4 -15 -10 -15 -5 0 -10 7 -10 15 0 8 -8 15 -17 15 -15 0 -18 -9
-18 -48z m52 -34 c-3 -7 -5 -2 -5 12 0 14 2 19 5 13 2 -7 2 -19 0 -25z"/>
</g>
</svg>
